{
    "asset" : {
        "generator" : "Khronos glTF Blender I/O v1.7.33",
        "version" : "2.0"
    },
    "scene" : 0,
    "scenes" : [
        {
            "name" : "Scene",
            "nodes" : [
                0
            ]
        }
    ],
    "nodes" : [
        {
            "mesh" : 0,
            "name" : "Wall_Shoji_Interior"
        }
    ],
    "materials" : [
        {
            "doubleSided" : true,
            "name" : "Atlas",
            "pbrMetallicRoughness" : {
                "baseColorTexture" : {
                    "index" : 0
                },
                "metallicFactor" : 0,
                "roughnessFactor" : 0.5
            }
        },
        {
            "doubleSided" : true,
            "name" : "Light",
            "pbrMetallicRoughness" : {
                "baseColorFactor" : [
                    0.8000000715255737,
                    0.7022529244422913,
                    0.5518839359283447,
                    1
                ],
                "metallicFactor" : 0,
                "roughnessFactor" : 0.5
            }
        }
    ],
    "meshes" : [
        {
            "name" : "Cube.046",
            "primitives" : [
                {
                    "attributes" : {
                        "POSITION" : 0,
                        "NORMAL" : 1,
                        "TEXCOORD_0" : 2
                    },
                    "indices" : 3,
                    "material" : 0
                },
                {
                    "attributes" : {
                        "POSITION" : 4,
                        "NORMAL" : 5,
                        "TEXCOORD_0" : 6
                    },
                    "indices" : 7,
                    "material" : 1
                }
            ]
        }
    ],
    "textures" : [
        {
            "sampler" : 0,
            "source" : 0
        }
    ],
    "images" : [
        {
            "bufferView" : 4,
            "mimeType" : "image/png",
            "name" : "Sushi_Atlas"
        }
    ],
    "accessors" : [
        {
            "bufferView" : 0,
            "componentType" : 5126,
            "count" : 232,
            "max" : [
                2,
                4.3900465965271,
                0.32226112484931946
            ],
            "min" : [
                -2.000000476837158,
                -0.037383973598480225,
                -0.32226091623306274
            ],
            "type" : "VEC3"
        },
        {
            "bufferView" : 1,
            "componentType" : 5126,
            "count" : 232,
            "type" : "VEC3"
        },
        {
            "bufferView" : 2,
            "componentType" : 5126,
            "count" : 232,
            "type" : "VEC2"
        },
        {
            "bufferView" : 3,
            "componentType" : 5123,
            "count" : 348,
            "type" : "SCALAR"
        },
        {
            "bufferView" : 5,
            "componentType" : 5126,
            "count" : 8,
            "max" : [
                1.972230315208435,
                4.339270114898682,
                0.17632904648780823
            ],
            "min" : [
                -1.9778708219528198,
                0.7652462720870972,
                -0.11843214184045792
            ],
            "type" : "VEC3"
        },
        {
            "bufferView" : 6,
            "componentType" : 5126,
            "count" : 8,
            "type" : "VEC3"
        },
        {
            "bufferView" : 7,
            "componentType" : 5126,
            "count" : 8,
            "type" : "VEC2"
        },
        {
            "bufferView" : 8,
            "componentType" : 5123,
            "count" : 12,
            "type" : "SCALAR"
        }
    ],
    "bufferViews" : [
        {
            "buffer" : 0,
            "byteLength" : 2784,
            "byteOffset" : 0
        },
        {
            "buffer" : 0,
            "byteLength" : 2784,
            "byteOffset" : 2784
        },
        {
            "buffer" : 0,
            "byteLength" : 1856,
            "byteOffset" : 5568
        },
        {
            "buffer" : 0,
            "byteLength" : 696,
            "byteOffset" : 7424
        },
        {
            "buffer" : 0,
            "byteLength" : 2933,
            "byteOffset" : 8120
        },
        {
            "buffer" : 0,
            "byteLength" : 96,
            "byteOffset" : 11056
        },
        {
            "buffer" : 0,
            "byteLength" : 96,
            "byteOffset" : 11152
        },
        {
            "buffer" : 0,
            "byteLength" : 64,
            "byteOffset" : 11248
        },
        {
            "buffer" : 0,
            "byteLength" : 24,
            "byteOffset" : 11312
        }
    ],
    "samplers" : [
        {
            "magFilter" : 9729,
            "minFilter" : 9987
        }
    ],
    "buffers" : [
        {
            "byteLength" : 11336,
            "uri" : "data:application/octet-stream;base64,"
        }
    ]
}
