{
    "asset" : {
        "generator" : "Khronos glTF Blender I/O v1.7.33",
        "version" : "2.0"
    },
    "scene" : 0,
    "scenes" : [
        {
            "name" : "Scene",
            "nodes" : [
                0
            ]
        }
    ],
    "nodes" : [
        {
            "mesh" : 0,
            "name" : "Wall_Shoji"
        }
    ],
    "materials" : [
        {
            "doubleSided" : true,
            "name" : "Atlas",
            "pbrMetallicRoughness" : {
                "baseColorTexture" : {
                    "index" : 0
                },
                "metallicFactor" : 0,
                "roughnessFactor" : 0.5
            }
        },
        {
            "doubleSided" : true,
            "name" : "Light",
            "pbrMetallicRoughness" : {
                "baseColorFactor" : [
                    0.8000000715255737,
                    0.7022529244422913,
                    0.5518839359283447,
                    1
                ],
                "metallicFactor" : 0,
                "roughnessFactor" : 0.5
            }
        }
    ],
    "meshes" : [
        {
            "name" : "Cube.197",
            "primitives" : [
                {
                    "attributes" : {
                        "POSITION" : 0,
                        "NORMAL" : 1,
                        "TEXCOORD_0" : 2
                    },
                    "indices" : 3,
                    "material" : 0
                },
                {
                    "attributes" : {
                        "POSITION" : 4,
                        "NORMAL" : 5,
                        "TEXCOORD_0" : 6
                    },
                    "indices" : 7,
                    "material" : 1
                }
            ]
        }
    ],
    "textures" : [
        {
            "sampler" : 0,
            "source" : 0
        }
    ],
    "images" : [
        {
            "bufferView" : 4,
            "mimeType" : "image/png",
            "name" : "Sushi_Atlas"
        }
    ],
    "accessors" : [
        {
            "bufferView" : 0,
            "componentType" : 5126,
            "count" : 674,
            "max" : [
                2,
                5.17037296295166,
                -1.6731178760528564
            ],
            "min" : [
                -2,
                -5.587935447692871e-09,
                -2.4682815074920654
            ],
            "type" : "VEC3"
        },
        {
            "bufferView" : 1,
            "componentType" : 5126,
            "count" : 674,
            "type" : "VEC3"
        },
        {
            "bufferView" : 2,
            "componentType" : 5126,
            "count" : 674,
            "type" : "VEC2"
        },
        {
            "bufferView" : 3,
            "componentType" : 5123,
            "count" : 1248,
            "type" : "SCALAR"
        },
        {
            "bufferView" : 5,
            "componentType" : 5126,
            "count" : 4,
            "max" : [
                2,
                4.175995349884033,
                -1.9682813882827759
            ],
            "min" : [
                -2,
                1.6612673997879028,
                -1.9682815074920654
            ],
            "type" : "VEC3"
        },
        {
            "bufferView" : 6,
            "componentType" : 5126,
            "count" : 4,
            "type" : "VEC3"
        },
        {
            "bufferView" : 7,
            "componentType" : 5126,
            "count" : 4,
            "type" : "VEC2"
        },
        {
            "bufferView" : 8,
            "componentType" : 5123,
            "count" : 6,
            "type" : "SCALAR"
        }
    ],
    "bufferViews" : [
        {
            "buffer" : 0,
            "byteLength" : 8088,
            "byteOffset" : 0
        },
        {
            "buffer" : 0,
            "byteLength" : 8088,
            "byteOffset" : 8088
        },
        {
            "buffer" : 0,
            "byteLength" : 5392,
            "byteOffset" : 16176
        },
        {
            "buffer" : 0,
            "byteLength" : 2496,
            "byteOffset" : 21568
        },
        {
            "buffer" : 0,
            "byteLength" : 2933,
            "byteOffset" : 24064
        },
        {
            "buffer" : 0,
            "byteLength" : 48,
            "byteOffset" : 27000
        },
        {
            "buffer" : 0,
            "byteLength" : 48,
            "byteOffset" : 27048
        },
        {
            "buffer" : 0,
            "byteLength" : 32,
            "byteOffset" : 27096
        },
        {
            "buffer" : 0,
            "byteLength" : 12,
            "byteOffset" : 27128
        }
    ],
    "samplers" : [
        {
            "magFilter" : 9729,
            "minFilter" : 9987
        }
    ],
    "buffers" : [
        {
            "byteLength" : 27140,
            "uri" : "data:application/octet-stream;base64,"
        }
    ]
}
