{
    "asset" : {
        "generator" : "Khronos glTF Blender I/O v1.7.33",
        "version" : "2.0"
    },
    "scene" : 0,
    "scenes" : [
        {
            "name" : "Scene",
            "nodes" : [
                0
            ]
        }
    ],
    "nodes" : [
        {
            "mesh" : 0,
            "name" : "Decoration_Sign_2"
        }
    ],
    "materials" : [
        {
            "doubleSided" : true,
            "name" : "Atlas",
            "pbrMetallicRoughness" : {
                "baseColorTexture" : {
                    "index" : 0
                },
                "metallicFactor" : 0,
                "roughnessFactor" : 0.5
            }
        }
    ],
    "meshes" : [
        {
            "name" : "Cube.187",
            "primitives" : [
                {
                    "attributes" : {
                        "POSITION" : 0,
                        "NORMAL" : 1,
                        "TEXCOORD_0" : 2
                    },
                    "indices" : 3,
                    "material" : 0
                }
            ]
        }
    ],
    "textures" : [
        {
            "sampler" : 0,
            "source" : 0
        }
    ],
    "images" : [
        {
            "bufferView" : 4,
            "mimeType" : "image/png",
            "name" : "Sushi_Atlas"
        }
    ],
    "accessors" : [
        {
            "bufferView" : 0,
            "componentType" : 5126,
            "count" : 12294,
            "max" : [
                1.9899855852127075,
                0.13398122787475586,
                0.42944252490997314
            ],
            "min" : [
                -2.001382827758789,
                -2.7824971675872803,
                -0.17721295356750488
            ],
            "type" : "VEC3"
        },
        {
            "bufferView" : 1,
            "componentType" : 5126,
            "count" : 12294,
            "type" : "VEC3"
        },
        {
            "bufferView" : 2,
            "componentType" : 5126,
            "count" : 12294,
            "type" : "VEC2"
        },
        {
            "bufferView" : 3,
            "componentType" : 5123,
            "count" : 14310,
            "type" : "SCALAR"
        }
    ],
    "bufferViews" : [
        {
            "buffer" : 0,
            "byteLength" : 147528,
            "byteOffset" : 0
        },
        {
            "buffer" : 0,
            "byteLength" : 147528,
            "byteOffset" : 147528
        },
        {
            "buffer" : 0,
            "byteLength" : 98352,
            "byteOffset" : 295056
        },
        {
            "buffer" : 0,
            "byteLength" : 28620,
            "byteOffset" : 393408
        },
        {
            "buffer" : 0,
            "byteLength" : 2933,
            "byteOffset" : 422028
        }
    ],
    "samplers" : [
        {
            "magFilter" : 9729,
            "minFilter" : 9987
        }
    ],
    "buffers" : [
        {
            "byteLength" : 424964,
            "uri" : "data:application/octet-stream;base64,"
        }
    ]
}
