{
    "asset" : {
        "generator" : "Khronos glTF Blender I/O v1.7.33",
        "version" : "2.0"
    },
    "scene" : 0,
    "scenes" : [
        {
            "name" : "Scene",
            "nodes" : [
                0,
                1
            ]
        }
    ],
    "nodes" : [
        {
            "mesh" : 0,
            "name" : "Environment_CanFridge"
        },
        {
            "mesh" : 1,
            "name" : "Environment_CanFridge_Door",
            "translation" : [
                1.1800079345703125,
                2.2739739418029785,
                0.4863044023513794
            ]
        }
    ],
    "materials" : [
        {
            "doubleSided" : true,
            "name" : "Atlas",
            "pbrMetallicRoughness" : {
                "baseColorTexture" : {
                    "index" : 0
                },
                "metallicFactor" : 0,
                "roughnessFactor" : 0.5
            }
        },
        {
            "doubleSided" : true,
            "name" : "Glass",
            "pbrMetallicRoughness" : {}
        }
    ],
    "meshes" : [
        {
            "name" : "Cylinder.015",
            "primitives" : [
                {
                    "attributes" : {
                        "POSITION" : 0,
                        "NORMAL" : 1,
                        "TEXCOORD_0" : 2
                    },
                    "indices" : 3,
                    "material" : 0
                }
            ]
        },
        {
            "name" : "Cylinder.001",
            "primitives" : [
                {
                    "attributes" : {
                        "POSITION" : 4,
                        "NORMAL" : 5,
                        "TEXCOORD_0" : 6
                    },
                    "indices" : 7,
                    "material" : 0
                },
                {
                    "attributes" : {
                        "POSITION" : 8,
                        "NORMAL" : 9,
                        "TEXCOORD_0" : 10
                    },
                    "indices" : 11,
                    "material" : 1
                }
            ]
        }
    ],
    "textures" : [
        {
            "sampler" : 0,
            "source" : 0
        }
    ],
    "images" : [
        {
            "bufferView" : 4,
            "mimeType" : "image/png",
            "name" : "Sushi_Atlas"
        }
    ],
    "accessors" : [
        {
            "bufferView" : 0,
            "componentType" : 5126,
            "count" : 3116,
            "max" : [
                1.180008053779602,
                4.367465496063232,
                0.45618802309036255
            ],
            "min" : [
                -1.1800079345703125,
                -0.017791464924812317,
                -0.7082700133323669
            ],
            "type" : "VEC3"
        },
        {
            "bufferView" : 1,
            "componentType" : 5126,
            "count" : 3116,
            "type" : "VEC3"
        },
        {
            "bufferView" : 2,
            "componentType" : 5126,
            "count" : 3116,
            "type" : "VEC2"
        },
        {
            "bufferView" : 3,
            "componentType" : 5123,
            "count" : 8352,
            "type" : "SCALAR"
        },
        {
            "bufferView" : 5,
            "componentType" : 5126,
            "count" : 252,
            "max" : [
                0,
                2.093491554260254,
                0.17905229330062866
            ],
            "min" : [
                -2.360015869140625,
                -2.093492031097412,
                0
            ],
            "type" : "VEC3"
        },
        {
            "bufferView" : 6,
            "componentType" : 5126,
            "count" : 252,
            "type" : "VEC3"
        },
        {
            "bufferView" : 7,
            "componentType" : 5126,
            "count" : 252,
            "type" : "VEC2"
        },
        {
            "bufferView" : 8,
            "componentType" : 5123,
            "count" : 612,
            "type" : "SCALAR"
        },
        {
            "bufferView" : 9,
            "componentType" : 5126,
            "count" : 18,
            "max" : [
                -0.20475459098815918,
                1.8093461990356445,
                0.1330728530883789
            ],
            "min" : [
                -2.1552610397338867,
                -1.8093467950820923,
                0.1330728530883789
            ],
            "type" : "VEC3"
        },
        {
            "bufferView" : 10,
            "componentType" : 5126,
            "count" : 18,
            "type" : "VEC3"
        },
        {
            "bufferView" : 11,
            "componentType" : 5126,
            "count" : 18,
            "type" : "VEC2"
        },
        {
            "bufferView" : 12,
            "componentType" : 5123,
            "count" : 48,
            "type" : "SCALAR"
        }
    ],
    "bufferViews" : [
        {
            "buffer" : 0,
            "byteLength" : 37392,
            "byteOffset" : 0
        },
        {
            "buffer" : 0,
            "byteLength" : 37392,
            "byteOffset" : 37392
        },
        {
            "buffer" : 0,
            "byteLength" : 24928,
            "byteOffset" : 74784
        },
        {
            "buffer" : 0,
            "byteLength" : 16704,
            "byteOffset" : 99712
        },
        {
            "buffer" : 0,
            "byteLength" : 2933,
            "byteOffset" : 116416
        },
        {
            "buffer" : 0,
            "byteLength" : 3024,
            "byteOffset" : 119352
        },
        {
            "buffer" : 0,
            "byteLength" : 3024,
            "byteOffset" : 122376
        },
        {
            "buffer" : 0,
            "byteLength" : 2016,
            "byteOffset" : 125400
        },
        {
            "buffer" : 0,
            "byteLength" : 1224,
            "byteOffset" : 127416
        },
        {
            "buffer" : 0,
            "byteLength" : 216,
            "byteOffset" : 128640
        },
        {
            "buffer" : 0,
            "byteLength" : 216,
            "byteOffset" : 128856
        },
        {
            "buffer" : 0,
            "byteLength" : 144,
            "byteOffset" : 129072
        },
        {
            "buffer" : 0,
            "byteLength" : 96,
            "byteOffset" : 129216
        }
    ],
    "samplers" : [
        {
            "magFilter" : 9729,
            "minFilter" : 9987
        }
    ],
    "buffers" : [
        {
            "byteLength" : 129312,
            "uri" : "data:application/octet-stream;base64,"
        }
    ]
}
