{
    "asset" : {
        "generator" : "Khronos glTF Blender I/O v1.7.33",
        "version" : "2.0"
    },
    "scene" : 0,
    "scenes" : [
        {
            "name" : "Scene",
            "nodes" : [
                0,
                1
            ]
        }
    ],
    "nodes" : [
        {
            "mesh" : 0,
            "name" : "ChukamanSteamer_Lid",
            "translation" : [
                0.08394867181777954,
                0.4258291721343994,
                0
            ]
        },
        {
            "mesh" : 1,
            "name" : "Environment_ChukamanSteamer"
        }
    ],
    "materials" : [
        {
            "doubleSided" : true,
            "name" : "Atlas",
            "pbrMetallicRoughness" : {
                "baseColorTexture" : {
                    "index" : 0
                },
                "metallicFactor" : 0,
                "roughnessFactor" : 0.5
            }
        }
    ],
    "meshes" : [
        {
            "name" : "Cylinder.004",
            "primitives" : [
                {
                    "attributes" : {
                        "POSITION" : 0,
                        "NORMAL" : 1,
                        "TEXCOORD_0" : 2
                    },
                    "indices" : 3,
                    "material" : 0
                }
            ]
        },
        {
            "name" : "Cylinder.002",
            "primitives" : [
                {
                    "attributes" : {
                        "POSITION" : 4,
                        "NORMAL" : 5,
                        "TEXCOORD_0" : 6
                    },
                    "indices" : 7,
                    "material" : 0
                }
            ]
        }
    ],
    "textures" : [
        {
            "sampler" : 0,
            "source" : 0
        }
    ],
    "images" : [
        {
            "bufferView" : 4,
            "mimeType" : "image/png",
            "name" : "Sushi_Atlas"
        }
    ],
    "accessors" : [
        {
            "bufferView" : 0,
            "componentType" : 5126,
            "count" : 243,
            "max" : [
                0.47566208243370056,
                0.18770503997802734,
                0.47566208243370056
            ],
            "min" : [
                -0.47566208243370056,
                -5.960464477539063e-08,
                -0.47566208243370056
            ],
            "type" : "VEC3"
        },
        {
            "bufferView" : 1,
            "componentType" : 5126,
            "count" : 243,
            "type" : "VEC3"
        },
        {
            "bufferView" : 2,
            "componentType" : 5126,
            "count" : 243,
            "type" : "VEC2"
        },
        {
            "bufferView" : 3,
            "componentType" : 5123,
            "count" : 738,
            "type" : "SCALAR"
        },
        {
            "bufferView" : 5,
            "componentType" : 5126,
            "count" : 6481,
            "max" : [
                0.5459833741188049,
                0.42412760853767395,
                0.5459832549095154
            ],
            "min" : [
                -0.545983076095581,
                1.5982521972546238e-08,
                -0.5459832549095154
            ],
            "type" : "VEC3"
        },
        {
            "bufferView" : 6,
            "componentType" : 5126,
            "count" : 6481,
            "type" : "VEC3"
        },
        {
            "bufferView" : 7,
            "componentType" : 5126,
            "count" : 6481,
            "type" : "VEC2"
        },
        {
            "bufferView" : 8,
            "componentType" : 5123,
            "count" : 19092,
            "type" : "SCALAR"
        }
    ],
    "bufferViews" : [
        {
            "buffer" : 0,
            "byteLength" : 2916,
            "byteOffset" : 0
        },
        {
            "buffer" : 0,
            "byteLength" : 2916,
            "byteOffset" : 2916
        },
        {
            "buffer" : 0,
            "byteLength" : 1944,
            "byteOffset" : 5832
        },
        {
            "buffer" : 0,
            "byteLength" : 1476,
            "byteOffset" : 7776
        },
        {
            "buffer" : 0,
            "byteLength" : 2933,
            "byteOffset" : 9252
        },
        {
            "buffer" : 0,
            "byteLength" : 77772,
            "byteOffset" : 12188
        },
        {
            "buffer" : 0,
            "byteLength" : 77772,
            "byteOffset" : 89960
        },
        {
            "buffer" : 0,
            "byteLength" : 51848,
            "byteOffset" : 167732
        },
        {
            "buffer" : 0,
            "byteLength" : 38184,
            "byteOffset" : 219580
        }
    ],
    "samplers" : [
        {
            "magFilter" : 9729,
            "minFilter" : 9987
        }
    ],
    "buffers" : [
        {
            "byteLength" : 257764,
            "uri" : "data:application/octet-stream;base64,"
        }
    ]
}
