{
    "asset" : {
        "generator" : "Khronos glTF Blender I/O v1.7.33",
        "version" : "2.0"
    },
    "scene" : 0,
    "scenes" : [
        {
            "name" : "Scene",
            "nodes" : [
                0,
                1
            ]
        }
    ],
    "nodes" : [
        {
            "mesh" : 0,
            "name" : "Environment_Fridge"
        },
        {
            "mesh" : 1,
            "name" : "Environment_Fridge_Door",
            "translation" : [
                1.2054846286773682,
                2.696127414703369,
                0.6148729920387268
            ]
        }
    ],
    "materials" : [
        {
            "doubleSided" : true,
            "name" : "Atlas",
            "pbrMetallicRoughness" : {
                "baseColorTexture" : {
                    "index" : 0
                },
                "metallicFactor" : 0,
                "roughnessFactor" : 0.5
            }
        }
    ],
    "meshes" : [
        {
            "name" : "Cube.199",
            "primitives" : [
                {
                    "attributes" : {
                        "POSITION" : 0,
                        "NORMAL" : 1,
                        "TEXCOORD_0" : 2
                    },
                    "indices" : 3,
                    "material" : 0
                }
            ]
        },
        {
            "name" : "Cube.001",
            "primitives" : [
                {
                    "attributes" : {
                        "POSITION" : 4,
                        "NORMAL" : 5,
                        "TEXCOORD_0" : 6
                    },
                    "indices" : 7,
                    "material" : 0
                }
            ]
        }
    ],
    "textures" : [
        {
            "sampler" : 0,
            "source" : 0
        }
    ],
    "images" : [
        {
            "bufferView" : 4,
            "mimeType" : "image/png",
            "name" : "Sushi_Atlas"
        }
    ],
    "accessors" : [
        {
            "bufferView" : 0,
            "componentType" : 5126,
            "count" : 473,
            "max" : [
                1.316222906112671,
                4.204087257385254,
                0.7581828832626343
            ],
            "min" : [
                -1.180008053779602,
                0.025522863492369652,
                -0.7858136296272278
            ],
            "type" : "VEC3"
        },
        {
            "bufferView" : 1,
            "componentType" : 5126,
            "count" : 473,
            "type" : "VEC3"
        },
        {
            "bufferView" : 2,
            "componentType" : 5126,
            "count" : 473,
            "type" : "VEC2"
        },
        {
            "bufferView" : 3,
            "componentType" : 5123,
            "count" : 1134,
            "type" : "SCALAR"
        },
        {
            "bufferView" : 5,
            "componentType" : 5126,
            "count" : 902,
            "max" : [
                0,
                1.5079598426818848,
                0.7806380391120911
            ],
            "min" : [
                -2.4109692573547363,
                -2.6706044673919678,
                0
            ],
            "type" : "VEC3"
        },
        {
            "bufferView" : 6,
            "componentType" : 5126,
            "count" : 902,
            "type" : "VEC3"
        },
        {
            "bufferView" : 7,
            "componentType" : 5126,
            "count" : 902,
            "type" : "VEC2"
        },
        {
            "bufferView" : 8,
            "componentType" : 5123,
            "count" : 2544,
            "type" : "SCALAR"
        }
    ],
    "bufferViews" : [
        {
            "buffer" : 0,
            "byteLength" : 5676,
            "byteOffset" : 0
        },
        {
            "buffer" : 0,
            "byteLength" : 5676,
            "byteOffset" : 5676
        },
        {
            "buffer" : 0,
            "byteLength" : 3784,
            "byteOffset" : 11352
        },
        {
            "buffer" : 0,
            "byteLength" : 2268,
            "byteOffset" : 15136
        },
        {
            "buffer" : 0,
            "byteLength" : 2933,
            "byteOffset" : 17404
        },
        {
            "buffer" : 0,
            "byteLength" : 10824,
            "byteOffset" : 20340
        },
        {
            "buffer" : 0,
            "byteLength" : 10824,
            "byteOffset" : 31164
        },
        {
            "buffer" : 0,
            "byteLength" : 7216,
            "byteOffset" : 41988
        },
        {
            "buffer" : 0,
            "byteLength" : 5088,
            "byteOffset" : 49204
        }
    ],
    "samplers" : [
        {
            "magFilter" : 9729,
            "minFilter" : 9987
        }
    ],
    "buffers" : [
        {
            "byteLength" : 54292,
            "uri" : "data:application/octet-stream;base64,"
        }
    ]
}
