{
    "asset" : {
        "generator" : "Khronos glTF Blender I/O v1.7.33",
        "version" : "2.0"
    },
    "scene" : 0,
    "scenes" : [
        {
            "name" : "Scene",
            "nodes" : [
                0
            ]
        }
    ],
    "nodes" : [
        {
            "mesh" : 0,
            "name" : "Truck"
        }
    ],
    "materials" : [
        {
            "doubleSided" : true,
            "name" : "Atlas",
            "pbrMetallicRoughness" : {
                "baseColorTexture" : {
                    "index" : 0
                },
                "metallicFactor" : 0,
                "roughnessFactor" : 0.5
            }
        },
        {
            "doubleSided" : true,
            "emissiveFactor" : [
                1,
                1,
                0.9089318514952893
            ],
            "name" : "Lights",
            "pbrMetallicRoughness" : {}
        },
        {
            "doubleSided" : true,
            "name" : "Glass",
            "pbrMetallicRoughness" : {}
        }
    ],
    "meshes" : [
        {
            "name" : "Cylinder.003",
            "primitives" : [
                {
                    "attributes" : {
                        "POSITION" : 0,
                        "NORMAL" : 1,
                        "TEXCOORD_0" : 2
                    },
                    "indices" : 3,
                    "material" : 0
                },
                {
                    "attributes" : {
                        "POSITION" : 4,
                        "NORMAL" : 5,
                        "TEXCOORD_0" : 6
                    },
                    "indices" : 7,
                    "material" : 1
                },
                {
                    "attributes" : {
                        "POSITION" : 8,
                        "NORMAL" : 9,
                        "TEXCOORD_0" : 10
                    },
                    "indices" : 11,
                    "material" : 2
                }
            ]
        }
    ],
    "textures" : [
        {
            "sampler" : 0,
            "source" : 0
        }
    ],
    "images" : [
        {
            "bufferView" : 4,
            "mimeType" : "image/png",
            "name" : "Sushi_Atlas"
        }
    ],
    "accessors" : [
        {
            "bufferView" : 0,
            "componentType" : 5126,
            "count" : 14118,
            "max" : [
                2.948636293411255,
                7.317845821380615,
                3.973999500274658
            ],
            "min" : [
                -2.1466634273529053,
                0.0036983489990234375,
                -4.007555961608887
            ],
            "type" : "VEC3"
        },
        {
            "bufferView" : 1,
            "componentType" : 5126,
            "count" : 14118,
            "type" : "VEC3"
        },
        {
            "bufferView" : 2,
            "componentType" : 5126,
            "count" : 14118,
            "type" : "VEC2"
        },
        {
            "bufferView" : 3,
            "componentType" : 5123,
            "count" : 43326,
            "type" : "SCALAR"
        },
        {
            "bufferView" : 5,
            "componentType" : 5126,
            "count" : 32,
            "max" : [
                1.978426456451416,
                2.0963387489318848,
                3.854222297668457
            ],
            "min" : [
                -1.9784266948699951,
                1.2042653560638428,
                3.461704730987549
            ],
            "type" : "VEC3"
        },
        {
            "bufferView" : 6,
            "componentType" : 5126,
            "count" : 32,
            "type" : "VEC3"
        },
        {
            "bufferView" : 7,
            "componentType" : 5126,
            "count" : 32,
            "type" : "VEC2"
        },
        {
            "bufferView" : 8,
            "componentType" : 5123,
            "count" : 60,
            "type" : "SCALAR"
        },
        {
            "bufferView" : 9,
            "componentType" : 5126,
            "count" : 185,
            "max" : [
                1.8030376434326172,
                3.9891958236694336,
                3.5083632469177246
            ],
            "min" : [
                -1.8030378818511963,
                1.566070556640625,
                1.1840709447860718
            ],
            "type" : "VEC3"
        },
        {
            "bufferView" : 10,
            "componentType" : 5126,
            "count" : 185,
            "type" : "VEC3"
        },
        {
            "bufferView" : 11,
            "componentType" : 5126,
            "count" : 185,
            "type" : "VEC2"
        },
        {
            "bufferView" : 12,
            "componentType" : 5123,
            "count" : 498,
            "type" : "SCALAR"
        }
    ],
    "bufferViews" : [
        {
            "buffer" : 0,
            "byteLength" : 169416,
            "byteOffset" : 0
        },
        {
            "buffer" : 0,
            "byteLength" : 169416,
            "byteOffset" : 169416
        },
        {
            "buffer" : 0,
            "byteLength" : 112944,
            "byteOffset" : 338832
        },
        {
            "buffer" : 0,
            "byteLength" : 86652,
            "byteOffset" : 451776
        },
        {
            "buffer" : 0,
            "byteLength" : 2933,
            "byteOffset" : 538428
        },
        {
            "buffer" : 0,
            "byteLength" : 384,
            "byteOffset" : 541364
        },
        {
            "buffer" : 0,
            "byteLength" : 384,
            "byteOffset" : 541748
        },
        {
            "buffer" : 0,
            "byteLength" : 256,
            "byteOffset" : 542132
        },
        {
            "buffer" : 0,
            "byteLength" : 120,
            "byteOffset" : 542388
        },
        {
            "buffer" : 0,
            "byteLength" : 2220,
            "byteOffset" : 542508
        },
        {
            "buffer" : 0,
            "byteLength" : 2220,
            "byteOffset" : 544728
        },
        {
            "buffer" : 0,
            "byteLength" : 1480,
            "byteOffset" : 546948
        },
        {
            "buffer" : 0,
            "byteLength" : 996,
            "byteOffset" : 548428
        }
    ],
    "samplers" : [
        {
            "magFilter" : 9729,
            "minFilter" : 9987
        }
    ],
    "buffers" : [
        {
            "byteLength" : 549424,
            "uri" : "data:application/octet-stream;base64,"
        }
    ]
}
